<svg xmlns="http://www.w3.org/2000/svg" width="512" height="512" viewBox="0 0 512 512" role="img" aria-label="Aura magique de Nystul">
  <defs>
    <radialGradient id="bg" cx="50%" cy="44%" r="72%"><stop offset="0" stop-color="#29114b"/><stop offset="0.48" stop-color="#10061f"/><stop offset="1" stop-color="#030207"/></radialGradient>
    <linearGradient id="smoke" x1="0" y1="0" x2="1" y2="1"><stop stop-color="#dba5ff" stop-opacity="0.05"/><stop offset="0.38" stop-color="#9c38ff" stop-opacity="0.9"/><stop offset="0.72" stop-color="#f3d1ff" stop-opacity="0.52"/><stop offset="1" stop-color="#5610b8" stop-opacity="0.05"/></linearGradient>
    <linearGradient id="silver" x1="0" y1="0" x2="1" y2="1"><stop stop-color="#f7f4ff"/><stop offset="0.2" stop-color="#8d91ad"/><stop offset="0.5" stop-color="#ece8f6"/><stop offset="0.75" stop-color="#555872"/><stop offset="1" stop-color="#d7d3e7"/></linearGradient>
    <radialGradient id="gem" cx="35%" cy="25%" r="76%"><stop offset="0" stop-color="#f7e7ff"/><stop offset="0.18" stop-color="#d78cff"/><stop offset="0.52" stop-color="#7b18d2"/><stop offset="1" stop-color="#1d063f"/></radialGradient>
    <filter id="glow" x="-80%" y="-80%" width="260%" height="260%"><feGaussianBlur stdDeviation="7" result="blur"/><feMerge><feMergeNode in="blur"/><feMergeNode in="SourceGraphic"/></feMerge></filter>
  </defs>
  <rect width="512" height="512" fill="url(#bg)"/>
  <path d="M34 356C92 240 91 107 215 78c95-23 159 51 213 1-49 87-16 180 45 252-114-30-139 101-247 68C129 373 126 444 34 356Z" fill="#6120b3" opacity=".15"/>
  <path d="M75 303C139 155 252 117 404 162 316 143 207 208 168 346 143 430 82 423 75 303Z" fill="none" stroke="url(#smoke)" stroke-width="20" stroke-linecap="round" opacity=".78" filter="url(#glow)"/>
  <path d="M415 196C333 291 338 382 206 428 280 374 286 273 231 187 192 126 243 72 334 80" fill="none" stroke="url(#smoke)" stroke-width="15" stroke-linecap="round" opacity=".76" filter="url(#glow)"/>
  <path d="M104 144C179 175 205 227 198 291 191 351 132 374 84 359 146 328 148 237 104 144Z" fill="none" stroke="#c071ff" stroke-width="5" opacity=".6" filter="url(#glow)"/>
  <g transform="rotate(-18 256 256)">
    <path d="M257 97c-31 25-36 59-23 89l22 43 22-43c13-30 8-64-21-89Z" fill="url(#silver)" stroke="#e9dfff" stroke-width="3"/>
    <path d="M240 182h34l-18 44Z" fill="#431182" opacity=".72"/>
    <path d="M257 202c-58 0-106 47-106 106 0 68 50 116 106 151 56-35 106-83 106-151 0-59-48-106-106-106Z" fill="url(#silver)" stroke="#f7edff" stroke-width="4"/>
    <path d="M257 222c-47 0-85 39-85 86 0 54 37 93 85 126 48-33 85-72 85-126 0-47-38-86-85-86Z" fill="#1c1332" stroke="#747792" stroke-width="6"/>
    <ellipse cx="257" cy="311" rx="54" ry="60" fill="url(#gem)" stroke="#f6ceff" stroke-width="4" filter="url(#glow)"/>
    <path d="M221 301c14-33 52-43 71-22-10-4-24-3-36 4-17 9-26 28-35 18Z" fill="#fff" opacity=".52"/>
    <path d="M179 296l23-13M179 327l25 8M335 296l-23-13M335 327l-25 8" stroke="#ded9ed" stroke-width="4" stroke-linecap="round" opacity=".74"/>
  </g>
  <g fill="#f4ceff" filter="url(#glow)"><circle cx="104" cy="128" r="3"/><circle cx="422" cy="245" r="3"/><circle cx="365" cy="88" r="2.5"/><circle cx="76" cy="391" r="2.5"/><circle cx="410" cy="402" r="3"/><circle cx="159" cy="68" r="2"/><circle cx="351" cy="436" r="2"/></g>
</svg>
