<svg xmlns="http://www.w3.org/2000/svg" viewBox="0 0 64 64">
  <circle cx="32" cy="32" r="30" fill="#111" stroke="#eee" stroke-width="4"/>
  <path d="M20 26c0-9 5-16 12-16s12 7 12 16c0 5-2 9-5 12v8c0 2-1 3-3 3h-2v-7h-4v7h-2c-2 0-3-1-3-3v-8c-3-3-5-7-5-12z" fill="#eee"/>
  <circle cx="27" cy="28" r="4" fill="#111"/>
  <circle cx="37" cy="28" r="4" fill="#111"/>
  <path d="M29 38h6l-3 4z" fill="#111"/>
  <path d="M18 53l36-36M10 17l37 37" stroke="#b00000" stroke-width="5" stroke-linecap="round"/>
</svg>
